<svg version="1.2" xmlns="http://www.w3.org/2000/svg" viewBox="0 0 89 39" width="89" height="39">
	<title>image</title>
	<style>
		.s0 { fill: #ff9c41 } 
	</style>
	<path id="Layer" class="s0" d="m10.6 4.3q-0.9 0.2-1.8 0.6-1.9 0.8-3.1 1.6-0.1-0.4-0.4-0.9-0.1-0.3-0.4-0.6 0.4-0.2 0.8-0.3 0.2 0 0.2-0.2 0.1-0.1 0.1-0.3-0.1-0.1-0.2-0.2-0.1-0.1-0.3-0.1-0.8 0.2-1.4 0.7-0.1 0-0.3 0.1c-1.9 0.8-3.6 1.1-3.8 0.6-0.2-0.5 1.2-1.5 3.1-2.3 1.2-0.6 2.2-1.3 2.9-1.3 0.7-0.3 1.4 0 3.1 1.1 0.6 0.4 1.2 0.9 1.5 1.5z"/>
	<path id="Layer" class="s0" d="m16.6 13q0.1 0.5 0.4 0.9-0.1 0.7-0.2 1.4-0.1 0.1-0.3 0.3-0.6 0.6-1.1 1.2-0.2-1-0.5-1.9-0.1-0.1-0.1-0.3 0.2-0.1 0.4-0.4 0.7-0.6 1.4-1.2z"/>
	<path id="Layer" fill-rule="evenodd" class="s0" d="m19 14.7q-0.1 0.8-0.1 1.2c-0.2 1.8-0.5 6-0.5 6q0 0.1-0.1 0.1-0.4-0.1-0.9-0.2-0.2-0.1-0.4-0.1 0 0 0-0.1c0 0 0.2-1.7 0.4-4 0.1-0.9 0.2-1.9 0.3-3.1q0.4 0.3 0.9 0.3 0.2 0 0.4-0.1zm3.1-12c0 0.2 0 0.5 0 0.7q-0.1 0.6-0.4 1-0.2 0.3-0.4 0.5-0.3 0.5-0.6 1-0.3 0.4-0.7 0.9-0.1 0.1-0.2 0.3c-0.3 0.4-0.5 0.7-0.5 1.5 0 0.4-0.1 1-0.1 1.7q-0.3 0-0.6 0-0.2 0-0.5 0c0.1-0.8 0.2-1.5 0.3-2q0-0.5-0.2-1-0.2-0.4-0.3-0.8-0.4-0.6-0.7-1.3-0.3-0.6-0.5-1.2-0.3-0.7-0.2-1.5 0-0.5 0.3-1c0.3-0.5 0.7-1 1.3-1.2q0.5-0.3 1.1-0.3 0.1 0 0.1 0 0.4 0 0.8 0.1 0.5 0.2 0.9 0.5 0.6 0.4 0.9 1 0.1 0.5 0.2 0.9 0 0.1 0 0.2zm-1.8 1.1c0.2-0.2 0.4-0.6 0.4-1q0-0.4-0.2-0.7-0.3-0.4-0.7-0.6-0.4-0.1-0.8-0.1-0.4 0.1-0.7 0.4-0.3 0.3-0.4 0.8-0.1 0.4 0.1 0.8 0.1 0.4 0.5 0.6 0.4 0.3 0.8 0.3c0.4 0 0.7-0.2 1-0.5z"/>
	<path id="Layer" class="s0" d="m15.5 9.9c-0.1-1.1-0.6-2.1-1.4-2.8-0.8-0.8-1.9-1.2-3-1.2q-0.4 0-0.8 0.1c-0.7 0.2-1.4 0.5-2 1-0.5 0.4-1 1.1-1.3 1.8-0.2 0.7-0.3 1.4-0.2 2.2 0.1 0.7 0.4 1.4 0.8 2-1.7-0.1-2.6-0.9-3-2.1-0.5-1.2-0.1-2.4 1.4-3.6q1.1-0.9 3.1-1.7 0.8-0.3 1.7-0.5 0.8-0.2 1.6-0.2c1.9 0 3.2 0.8 3.6 2 0.3 1 0.3 2-0.5 3z"/>
	<path id="Layer" class="s0" d="m12.4 31q-0.1 0-0.2 0.1z"/>
	<path id="Layer" class="s0" d="m19.9 12.2q0 0.4-0.1 0.7-0.1 0.4-0.4 0.7-0.2 0.2-0.4 0.3-0.2 0.1-0.4 0.1-0.3 0-0.6-0.2-0.1-0.1-0.2-0.2-0.2-0.2-0.4-0.5-0.1-0.2-0.1-0.5 0-0.2 0-0.4c0-0.4 0.1-0.7 0.3-0.9q0.2-0.1 0.5-0.2 0.2 0 0.5 0 0.3 0 0.6 0 0.2 0.1 0.3 0.2 0.3 0.2 0.4 0.6 0 0.2 0 0.3z"/>
	<path id="Layer" class="s0" d="m3.3 26.6q0.2 0.1 0.4 0.2 0.1 0.2 0.1 0.5l-0.1 7.7c0 0.3-0.5 0.6-0.9 0.6-0.3-0.1-0.8-0.3-0.7-0.7l0.6-7.7q0-0.2 0.1-0.4 0.2-0.2 0.5-0.2z"/>
	<path id="Layer" class="s0" d="m11.3 25q0.3 0 0.6 0.2 0.2 0.3 0.2 0.7l0.5 11.2c0 0.5-0.8 0.9-1.2 0.9-0.5 0-1.2-0.4-1.2-0.9l0.2-11.2q0-0.4 0.3-0.6 0.2-0.3 0.6-0.3z"/>
	<path id="Layer" class="s0" d="m19.5 26.6q-0.3 0.1-0.4 0.2-0.2 0.2-0.2 0.5l0.1 7.7c0.1 0.3 0.6 0.6 0.9 0.6 0.3-0.1 0.8-0.3 0.8-0.7l-0.6-7.7q0-0.2-0.2-0.4-0.2-0.2-0.4-0.2z"/>
	<path id="Layer" fill-rule="evenodd" class="s0" d="m7.2 21.4q0 0 0 0zm2.1-5.4q0 0 0 0 0 0 0 0zm0 0.2q0-0.1 0-0.1 0 0 0-0.1 0 0.1 0 0.2zm-2.4 4.4h0.1z"/>
	<path id="Layer" fill-rule="evenodd" class="s0" d="m15.5 21.4q-2.1-0.3-4.2-0.3-2.1 0-4.1 0.3 0 0 0 0c0.8-0.5 1.4-1.8 2.1-3.3q0.4-0.7 0.6-1.5 0.1-0.3 0.2-0.5-0.1-0.1-0.2-0.2 0-0.1-0.2-0.1-0.1 0-0.2 0.1-0.1 0-0.2 0.1-0.1 0.1-0.1 0.2 0 0.2-0.1 0.5 0 0-0.1 0.1 0 0.1-0.1 0.3 0 0 0 0.1-0.1 0.1-0.1 0.3l-0.1 0.1q0 0.1-0.1 0.2-0.1 0.2-0.2 0.4l-0.1 0.2c-0.3 0.6-0.6 1.2-0.9 1.7q-0.1 0.1-0.2 0.2v0.1q-0.1 0-0.1 0.1 0 0-0.1 0 0 0.1 0 0.1h-0.1q0 0.1-0.1 0.1 0 0-0.1 0 0 0.1 0 0.1h-0.1q0 0-0.1 0-0.1 0-0.3 0 0 0-0.1-0.1c-1-0.5-0.2-1.9 0.7-3.8q0.1-0.2 0.2-0.3v-0.1q0.1-0.3 0.2-0.5l0.1-0.1q0.2-0.3 0.4-0.6 0.3-0.5 0.7-0.9c0.2-0.2 0.6-0.6 0.7-0.7 0-0.1 0-0.2 0.1-0.3q-0.1 0-0.2-0.1-0.2-0.2-0.4-0.3-0.6-0.7-0.9-1.5-0.3-0.9-0.1-1.8 0.2-0.9 0.7-1.6 0.6-0.7 1.4-1.1 0.9-0.3 1.8-0.3 0.9 0.1 1.6 0.6 0.8 0.5 1.2 1.3 0.4 0.8 0.4 1.8 0 0.1 0 0.2 0 0.3 0 0.5-0.1 0.3-0.2 0.6-0.4 0.9-1.1 1.5 0 0 0 0 0.4 1 0.7 1.9v0.1q0.4 1.1 0.7 2.2 0 0 0 0c0.3 1.5 0.6 3 0.7 4zm-2.5-9.4q0-0.1-0.1-0.2-0.1 0-0.2-0.1 0 0 0 0c-1.4-0.1-1.8-0.8-1.9-0.8q-0.1-0.2-0.2-0.2-0.2 0-0.3 0.1-0.1 0-0.2 0.2 0 0.2 0.1 0.3c0 0 0.4 0.6 1.3 0.9q0.3 0.2 0.6 0.2 0.2 0.1 0.5 0.1 0 0 0 0 0.2 0 0.3-0.1 0.1-0.1 0.1-0.2 0-0.1 0-0.2z"/>
	<path id="Layer" fill-rule="evenodd" class="s0" d="m6.9 20.6zm-0.4 0.2q0 0 0.1 0-0.1 0-0.1 0zm0.7 0.6q0 0 0 0z"/>
	<path id="Layer" class="s0" d="m9.3 16v0.1q0 0-0.1 0.1 0-0.1 0.1-0.2z"/>
	<path id="Layer" class="s0" d="m21.6 27.2q0.1-0.1 0.1-0.3 0-0.4-0.2-0.7-0.3-0.5-1-1c-1.1-0.7-2.9-1.3-5-1.6q-2.1-0.3-4.2-0.3-2.1 0-4.1 0.3c-2.2 0.3-4 0.9-5.1 1.6q-0.7 0.5-1 1-0.2 0.3-0.2 0.7 0 0.2 0 0.4-0.1-0.5-0.1-1 0-0.5 0.1-0.9c0.2-1.4 2.3-2.5 5.5-3.1q0.2 0 0.4-0.1 0.2 0 0.4 0 2-0.3 4.1-0.3 2.1 0 4.2 0.3 0.2 0 0.4 0.1 0.2 0 0.4 0 0.1 0.1 0.2 0.1 0.4 0 0.7 0.1 0.5 0.1 0.9 0.3 0.1 0 0.3 0.1c1.8 0.6 3 1.4 3.2 2.3 0.2 0.7 0.2 1.4 0 2z"/>
	<path id="Layer" class="s0" d="m9.3 16q0 0.1 0 0.1 0 0-0.1 0.1 0-0.1 0.1-0.2z"/>
	<path id="Layer" fill-rule="evenodd" class="s0" d="m28.8 12.2v-0.1c0-3.8 2.9-6.2 6.6-6.2 3.7 0 6.5 2.1 6.5 6.1v0.1c0 3.9-2.6 6.3-6.6 6.3-4.1 0-6.5-2.4-6.5-6.2zm8.5 0v-0.1c0-1.9-0.8-2.7-2-2.7-1.1 0-1.8 0.8-1.8 2.7v0.1c0 1.8 0.6 2.7 1.9 2.7 1.1 0 1.9-0.9 1.9-2.7z"/>
	<path id="Layer" fill-rule="evenodd" class="s0" d="m42.9 9.4h3.8v1.2c0.5-0.8 1.3-1.5 2.6-1.5 1.9 0 3.6 1.4 3.6 4.6v0.2c0 3.2-1.8 4.5-3.6 4.5-1.3 0-2.2-0.6-2.6-1.4v4.1h-3.8zm6.1 4.3c0-1.2-0.4-1.8-1.2-1.8-0.8 0-1.2 0.7-1.2 1.8v0.1c0 1.1 0.4 1.7 1.2 1.7 0.7 0 1.2-0.6 1.2-1.7z"/>
	<path id="Layer" fill-rule="evenodd" class="s0" d="m53.4 13.9v-0.1c0-3 2.3-4.7 5-4.7 2.6 0 4.8 1.4 4.8 4.6v0.8h-6c0.1 0.9 0.6 1.3 1.3 1.3 0.8 0 1.1-0.4 1.2-0.7h3.5c-0.3 2.1-1.8 3.3-4.8 3.3-2.9 0-5-1.6-5-4.5zm6.1-1.1c0-0.8-0.3-1.3-1.1-1.3-0.6 0-1 0.4-1.1 1.3z"/>
	<path id="Layer" class="s0" d="m64 9.4h3.9v1.4c0.5-1 1.4-1.7 2.9-1.7 1.6 0 2.7 1.1 2.7 3.2v5.9h-3.8v-5c0-0.7-0.3-1-0.9-1-0.7 0-1 0.3-1 1.2v4.8h-3.8z"/>
	<path id="Layer" fill-rule="evenodd" class="s0" d="m29.5 21.2h6.2c3.1 0 4.1 1.6 4.1 3.2 0 1.5-0.8 2.4-2.1 2.7 1.3 0.1 2.4 1 2.4 2.7v0.1c0 2.1-1.3 3.4-4.6 3.4h-6zm5.2 4.5c0.7 0 0.9-0.2 0.9-0.8 0-0.6-0.2-0.9-0.9-0.9h-0.9v1.7zm-0.1 4.6c0.8 0 1.1-0.4 1.1-1 0-0.6-0.3-1-1.1-1h-0.8v2z"/>
	<path id="Layer" fill-rule="evenodd" class="s0" d="m40.7 29v-0.2c0-2.9 2.2-4.6 5-4.6 2.8 0 5 1.6 5 4.5v0.2c0 2.9-2.2 4.6-5 4.6-2.8 0-5-1.5-5-4.5zm6.2-0.1v-0.1c0-1.2-0.3-1.8-1.2-1.8-0.8 0-1.1 0.5-1.1 1.7v0.1c0 1.3 0.3 1.9 1.1 1.9 0.8 0 1.2-0.6 1.2-1.8z"/>
	<path id="Layer" fill-rule="evenodd" class="s0" d="m51.2 30.8c0-2.1 1.6-2.9 4.8-2.9h0.6c0-0.6 0-1.1-0.7-1.1-0.7 0-0.8 0.5-0.8 0.7h-3.5c0.1-2.1 1.8-3.3 4.5-3.3 2.8 0 4.3 1.1 4.3 3.4v5.7h-3.7v-1c-0.3 0.5-1 1.2-2.5 1.2-1.5 0-3-0.8-3-2.7zm5.4-0.6v-0.3h-0.5c-0.9 0-1.1 0.2-1.1 0.6 0 0.3 0.3 0.5 0.7 0.5 0.6 0 0.9-0.4 0.9-0.8z"/>
	<path id="Layer" class="s0" d="m61.6 24.4h3.8v1.9c0.6-1.5 1.6-2 2.8-2v3.6c-1.8-0.1-2.8 0.5-2.8 1.5v3.9h-3.8z"/>
	<path id="Layer" fill-rule="evenodd" class="s0" d="m68.8 28.9v-0.1c0-3.2 1.6-4.6 3.5-4.6 1.4 0 2.2 0.5 2.6 1.4v-4.9h3.9v12.6h-3.9v-1.4c-0.4 0.9-1.2 1.6-2.5 1.6-1.9 0-3.6-1.4-3.6-4.6zm6.2 0v-0.2c0-1-0.3-1.7-1.1-1.7-0.8 0-1.2 0.5-1.2 1.7v0.2c0 1.1 0.3 1.7 1.2 1.7 0.8 0 1.1-0.6 1.1-1.7z"/>
	<path id="Layer" class="s0" d="m79.5 30.4h3.5c0.1 0.4 0.3 0.7 0.8 0.7 0.5 0 0.7-0.2 0.7-0.4 0-0.4-0.3-0.5-1.4-0.6-2.4-0.3-3.5-0.8-3.5-2.8 0-2.1 1.8-3.1 4.1-3.1 2.5 0 4.1 0.8 4.3 3h-3.4c-0.1-0.4-0.3-0.7-0.8-0.7-0.5 0-0.6 0.2-0.6 0.4 0 0.4 0.4 0.6 1.1 0.6 2.8 0.3 3.9 0.9 3.9 2.8 0 2.3-1.8 3.2-4.3 3.2-2.7 0-4.3-1.1-4.4-3.1z"/>
</svg>