<svg version="1.2" xmlns="http://www.w3.org/2000/svg" viewBox="0 0 23 39" width="23" height="39">
	<title>image</title>
	<style>
		.s0 { fill: #ff9c41 } 
	</style>
	<path id="Layer" class="s0" d="m10.6 4.3q-0.9 0.2-1.8 0.6-1.9 0.8-3.1 1.6-0.1-0.4-0.4-0.9-0.1-0.3-0.4-0.6 0.4-0.2 0.8-0.3 0.2 0 0.2-0.2 0.1-0.1 0.1-0.3-0.1-0.1-0.2-0.2-0.1-0.1-0.3-0.1-0.8 0.2-1.4 0.7-0.1 0-0.3 0.1c-1.9 0.8-3.6 1.1-3.8 0.6-0.2-0.5 1.2-1.5 3.1-2.3 1.2-0.6 2.2-1.3 2.9-1.3 0.7-0.3 1.4 0 3.1 1.1 0.6 0.4 1.2 0.9 1.5 1.5z"/>
	<path id="Layer" class="s0" d="m16.6 13q0.1 0.5 0.4 0.9-0.1 0.7-0.2 1.4-0.1 0.1-0.3 0.3-0.6 0.6-1.1 1.2-0.2-1-0.5-1.9-0.1-0.1-0.1-0.3 0.2-0.1 0.4-0.4 0.7-0.6 1.4-1.2z"/>
	<path id="Layer" fill-rule="evenodd" class="s0" d="m19 14.7q-0.1 0.8-0.1 1.2c-0.2 1.8-0.5 6-0.5 6q0 0.1-0.1 0.1-0.4-0.1-0.9-0.2-0.2-0.1-0.4-0.1 0 0 0-0.1c0 0 0.2-1.7 0.4-4 0.1-0.9 0.2-1.9 0.3-3.1q0.4 0.3 0.9 0.3 0.2 0 0.4-0.1zm3.1-12c0 0.2 0 0.5 0 0.7q-0.1 0.6-0.4 1-0.2 0.3-0.4 0.5-0.3 0.5-0.6 1-0.3 0.4-0.7 0.9-0.1 0.1-0.2 0.3c-0.3 0.4-0.5 0.7-0.5 1.5 0 0.4-0.1 1-0.1 1.7q-0.3 0-0.6 0-0.2 0-0.5 0c0.1-0.8 0.2-1.5 0.3-2q0-0.5-0.2-1-0.2-0.4-0.3-0.8-0.4-0.6-0.7-1.3-0.3-0.6-0.5-1.2-0.3-0.7-0.2-1.5 0-0.5 0.3-1c0.3-0.5 0.7-1 1.3-1.2q0.5-0.3 1.1-0.3 0.1 0 0.1 0 0.4 0 0.8 0.1 0.5 0.2 0.9 0.5 0.6 0.4 0.9 1 0.1 0.5 0.2 0.9 0 0.1 0 0.2zm-1.8 1.1c0.2-0.2 0.4-0.6 0.4-1q0-0.4-0.2-0.7-0.3-0.4-0.7-0.6-0.4-0.1-0.8 0-0.4 0-0.7 0.3-0.3 0.3-0.4 0.8-0.1 0.4 0.1 0.8 0.1 0.4 0.5 0.6 0.4 0.3 0.8 0.3c0.4 0 0.7-0.2 1-0.5z"/>
	<path id="Layer" class="s0" d="m15.5 9.9c-0.1-1.1-0.6-2.1-1.4-2.8-0.8-0.8-1.9-1.2-3-1.2q-0.4 0-0.8 0.1c-0.7 0.2-1.4 0.5-2 1-0.5 0.4-1 1.1-1.3 1.8-0.2 0.7-0.3 1.4-0.2 2.2 0.1 0.7 0.4 1.4 0.8 2-1.7-0.1-2.6-0.9-3-2.1-0.5-1.2-0.1-2.4 1.4-3.6q1.1-0.9 3.1-1.7 0.8-0.3 1.7-0.5 0.8-0.2 1.6-0.2c1.9 0 3.2 0.8 3.6 2 0.3 1 0.3 2-0.5 3z"/>
	<path id="Layer" class="s0" d="m12.4 31q-0.1 0-0.2 0.1z"/>
	<path id="Layer" class="s0" d="m19.9 12.2q0 0.4-0.1 0.7-0.1 0.4-0.4 0.7-0.2 0.2-0.4 0.3-0.2 0.1-0.4 0.1-0.3 0-0.6-0.2-0.1-0.1-0.2-0.2-0.2-0.2-0.4-0.5-0.1-0.2-0.1-0.5-0.1-0.2 0-0.3c0-0.5 0.1-0.8 0.3-1q0.2-0.1 0.5-0.2 0.2 0 0.5 0 0.3 0 0.6 0 0.2 0.1 0.3 0.2 0.3 0.2 0.4 0.6 0 0.2 0 0.3z"/>
	<path id="Layer" class="s0" d="m3.3 26.6q0.2 0.1 0.4 0.2 0.1 0.2 0.1 0.5l-0.1 7.7c0 0.3-0.5 0.6-0.9 0.6-0.3-0.1-0.8-0.3-0.7-0.7l0.6-7.7q0-0.2 0.1-0.4 0.2-0.2 0.5-0.2z"/>
	<path id="Layer" class="s0" d="m11.3 25q0.3 0 0.6 0.2 0.2 0.3 0.2 0.7l0.5 11.2c0 0.5-0.8 0.9-1.2 0.9-0.5 0-1.2-0.4-1.2-0.9l0.2-11.2q0-0.4 0.3-0.6 0.2-0.3 0.6-0.3z"/>
	<path id="Layer" class="s0" d="m19.5 26.6q-0.3 0.1-0.4 0.2-0.2 0.2-0.2 0.5l0.1 7.7c0.1 0.3 0.6 0.6 0.9 0.6 0.3-0.1 0.8-0.3 0.8-0.7l-0.6-7.7q0-0.2-0.2-0.4-0.2-0.2-0.4-0.2z"/>
	<path id="Layer" fill-rule="evenodd" class="s0" d="m7.2 21.4q0 0 0 0zm2.1-5.4q0 0 0 0 0 0 0 0zm0 0.2q0-0.1 0-0.1 0 0 0-0.1 0 0.1 0 0.2z"/>
	<path id="Layer" fill-rule="evenodd" class="s0" d="m15.5 21.4q-2.1-0.3-4.2-0.3-2.1 0-4.1 0.3 0 0 0 0c0.8-0.5 1.4-1.8 2.1-3.3q0.4-0.7 0.6-1.5 0.1-0.2 0.2-0.5-0.1-0.1-0.2-0.2 0-0.1-0.2-0.1-0.1 0-0.2 0.1-0.1 0-0.2 0.1-0.1 0.1-0.1 0.2 0 0.2-0.1 0.5 0 0-0.1 0.1 0 0.1-0.1 0.3 0 0 0 0.1-0.1 0.1-0.1 0.3l-0.1 0.1q0 0.1-0.1 0.2-0.1 0.2-0.2 0.4l-0.1 0.2c-0.3 0.6-0.6 1.2-0.9 1.7q-0.1 0.1-0.2 0.2v0.1q-0.1 0-0.1 0.1 0 0-0.1 0 0 0.1 0 0.1h-0.1q0 0.1-0.1 0.1 0 0-0.1 0 0 0.1 0 0.1h-0.1q0 0-0.1 0-0.1 0-0.3 0 0 0-0.1-0.1c-1-0.5-0.2-1.9 0.7-3.8q0.1-0.2 0.2-0.3v-0.1q0.1-0.3 0.2-0.5l0.1-0.1q0.2-0.3 0.4-0.6 0.3-0.5 0.7-0.9c0.2-0.2 0.6-0.6 0.7-0.7 0-0.1 0-0.2 0.1-0.3q-0.1 0-0.2-0.1-0.2-0.2-0.4-0.3-0.6-0.7-0.9-1.5-0.3-0.9-0.1-1.8 0.2-0.9 0.7-1.6 0.6-0.7 1.4-1.1 0.9-0.3 1.8-0.3 0.9 0.1 1.6 0.6 0.8 0.5 1.2 1.3 0.4 0.8 0.4 1.8 0 0.1 0 0.2 0 0.3 0 0.5-0.1 0.3-0.2 0.6-0.4 0.9-1.1 1.5 0 0 0 0 0.4 1 0.7 1.9v0.1q0.4 1.1 0.7 2.2 0 0 0 0c0.3 1.5 0.6 3 0.7 4zm-2.5-9.4q0-0.1-0.1-0.2-0.1 0-0.2-0.1 0 0 0 0c-1.4-0.1-1.8-0.8-1.9-0.8q-0.1-0.2-0.2-0.2-0.2 0-0.3 0.1-0.1 0-0.2 0.2 0 0.2 0.1 0.3c0 0 0.4 0.6 1.3 0.9q0.3 0.2 0.6 0.2 0.2 0.1 0.5 0.1 0 0 0 0 0.2 0 0.3-0.1 0.1-0.1 0.1-0.2 0-0.1 0-0.2z"/>
	<path id="Layer" fill-rule="evenodd" class="s0" d="m6.5 20.8q0.1 0 0.1 0 0 0-0.1 0zm0.7 0.6q0 0 0 0z"/>
	<path id="Layer" class="s0" d="m9.3 16v0.1q0 0.1-0.1 0.1 0-0.1 0.1-0.2z"/>
	<path id="Layer" class="s0" d="m21.6 27.2q0.1-0.1 0.1-0.3 0-0.3-0.2-0.7-0.3-0.5-1-1c-1.1-0.7-2.9-1.3-5-1.6q-2.1-0.3-4.2-0.3-2.1 0-4.1 0.3c-2.2 0.3-4 0.9-5.1 1.6q-0.7 0.5-1 1-0.2 0.4-0.2 0.7 0 0.2 0 0.4-0.1-0.5-0.1-1 0-0.5 0.1-0.9c0.2-1.4 2.3-2.5 5.5-3.1q0.2 0 0.4-0.1 0.2 0 0.4 0 2-0.3 4.1-0.3 2.1 0 4.2 0.3 0.2 0 0.4 0.1 0.2 0 0.4 0 0.1 0.1 0.2 0.1 0.4 0 0.7 0.1 0.5 0.1 0.9 0.3 0.1 0 0.3 0.1c1.8 0.6 3 1.4 3.2 2.3 0.2 0.7 0.2 1.4 0 2z"/>
	<path id="Layer" class="s0" d="m9.3 16q0 0.1 0 0.1 0 0.1-0.1 0.1 0-0.1 0.1-0.2z"/>
</svg>
